
  <svg width='1299px'
       height='340.5px'
       viewBox='0 0 1299 340.5'
       xmlns='http://www.w3.org/2000/svg'
       xmlns:xlink="http://www.w3.org/1999/xlink">

    <style type='text/css'>
    .keycap .border { stroke: black; stroke-width: 2; }
    .keycap .inner.border { stroke: rgba(0,0,0,.1); }
    </style>
    <defs>
      <linearGradient id="DCS">
        <stop offset="0%" stop-color="black" stop-opacity="0"/>
        <stop offset="40%" stop-color="black" stop-opacity="0.1"/>
        <stop offset="60%" stop-color="black" stop-opacity="0.1"/>
        <stop offset="100%" stop-color="black" stop-opacity="0"/>
      </linearGradient>
      <linearGradient id="SPACE" x1="0%" x2="0%" y1="0%" y2="100%">
        <stop offset="0%" stop-color="black" stop-opacity="0.1"/>
        <stop offset="20%" stop-color="black" stop-opacity="0.0"/>
        <stop offset="40%" stop-color="black" stop-opacity="0.0"/>
        <stop offset="100%" stop-color="black" stop-opacity="0.1"/>
      </linearGradient>
      <radialGradient id="DSA">
        <stop offset="0%" stop-color="black" stop-opacity="0.1"/>
        <stop offset="10%" stop-color="black" stop-opacity="0.1"/>
        <stop offset="100%" stop-color="black" stop-opacity="0"/>
      </radialGradient>
      <radialGradient id="SA" xlink:href="#DSA" />
    </defs>

    <g transform='translate(10,10)'>
      <rect width="1279" height="320.5"
            stroke="#ddd" stroke-width="1" fill="#eeeeee" rx="6"/>
      <g transform='translate(5,5)'>
        
  <g class='  keycap'
  >

  
    <!-- Outer Border -->
    <rect x="797.5" y="68.5"
          width="52" height="52"
          rx="5" fill="#f7f2ea" class="outer border"/>
    
    <!-- Outer Fill -->
    <rect x="797.5" y="68.5"
          width="52" height="52"
          rx="5" fill="#f7f2ea"/>
    

    
      <!-- Inner Border -->
      <rect x="803.5" y="71.5"
            width="40" height="40"
            rx="5" fill="#fffef6" class="inner border"/>
      
      <!-- Inner Fill -->
      <rect x="803.5" y="71.5"
            width="40" height="40"
            rx="5" fill="#fffef6"/>
      
      

     
   
  </g>

  <g class='  keycap'
  >

  
    <!-- Outer Border -->
    <rect x="851.5" y="68.5"
          width="52" height="52"
          rx="5" fill="#f7f2ea" class="outer border"/>
    
    <!-- Outer Fill -->
    <rect x="851.5" y="68.5"
          width="52" height="52"
          rx="5" fill="#f7f2ea"/>
    

    
      <!-- Inner Border -->
      <rect x="857.5" y="71.5"
            width="40" height="40"
            rx="5" fill="#fffef6" class="inner border"/>
      
      <!-- Inner Fill -->
      <rect x="857.5" y="71.5"
            width="40" height="40"
            rx="5" fill="#fffef6"/>
      
      

     
   
  </g>

  <g class='  keycap'
  >

  
    <!-- Outer Border -->
    <rect x="905.5" y="68.5"
          width="52" height="52"
          rx="5" fill="#f7f2ea" class="outer border"/>
    
    <!-- Outer Fill -->
    <rect x="905.5" y="68.5"
          width="52" height="52"
          rx="5" fill="#f7f2ea"/>
    

    
      <!-- Inner Border -->
      <rect x="911.5" y="71.5"
            width="40" height="40"
            rx="5" fill="#fffef6" class="inner border"/>
      
      <!-- Inner Fill -->
      <rect x="911.5" y="71.5"
            width="40" height="40"
            rx="5" fill="#fffef6"/>
      
      

     
   
  </g>

  <g class='  keycap'
  >

  
    <!-- Outer Border -->
    <rect x="959.5" y="68.5"
          width="52" height="52"
          rx="5" fill="#f7f2ea" class="outer border"/>
    
    <!-- Outer Fill -->
    <rect x="959.5" y="68.5"
          width="52" height="52"
          rx="5" fill="#f7f2ea"/>
    

    
      <!-- Inner Border -->
      <rect x="965.5" y="71.5"
            width="40" height="40"
            rx="5" fill="#fffef6" class="inner border"/>
      
      <!-- Inner Fill -->
      <rect x="965.5" y="71.5"
            width="40" height="40"
            rx="5" fill="#fffef6"/>
      
      

     
   
  </g>

  <g class='  keycap'
  >

  
    <!-- Outer Border -->
    <rect x="797.5" y="122.5"
          width="52" height="52"
          rx="5" fill="#f7f2ea" class="outer border"/>
    
    <!-- Outer Fill -->
    <rect x="797.5" y="122.5"
          width="52" height="52"
          rx="5" fill="#f7f2ea"/>
    

    
      <!-- Inner Border -->
      <rect x="803.5" y="125.5"
            width="40" height="40"
            rx="5" fill="#fffef6" class="inner border"/>
      
      <!-- Inner Fill -->
      <rect x="803.5" y="125.5"
            width="40" height="40"
            rx="5" fill="#fffef6"/>
      
      

     
   
  </g>

  <g class='  keycap'
  >

  
    <!-- Outer Border -->
    <rect x="851.5" y="122.5"
          width="52" height="52"
          rx="5" fill="#f7f2ea" class="outer border"/>
    
    <!-- Outer Fill -->
    <rect x="851.5" y="122.5"
          width="52" height="52"
          rx="5" fill="#f7f2ea"/>
    

    
      <!-- Inner Border -->
      <rect x="857.5" y="125.5"
            width="40" height="40"
            rx="5" fill="#fffef6" class="inner border"/>
      
      <!-- Inner Fill -->
      <rect x="857.5" y="125.5"
            width="40" height="40"
            rx="5" fill="#fffef6"/>
      
      

     
   
  </g>

  <g class='  keycap'
  >

  
    <!-- Outer Border -->
    <rect x="905.5" y="122.5"
          width="52" height="52"
          rx="5" fill="#f7f2ea" class="outer border"/>
    
    <!-- Outer Fill -->
    <rect x="905.5" y="122.5"
          width="52" height="52"
          rx="5" fill="#f7f2ea"/>
    

    
      <!-- Inner Border -->
      <rect x="911.5" y="125.5"
            width="40" height="40"
            rx="5" fill="#fffef6" class="inner border"/>
      
      <!-- Inner Fill -->
      <rect x="911.5" y="125.5"
            width="40" height="40"
            rx="5" fill="#fffef6"/>
      
      

     
   
  </g>

  <g class='  keycap'
  >

  
    <!-- Outer Border -->
    <rect x="959.5" y="122.5"
          width="52" height="52"
          rx="5" fill="#f7f2ea" class="outer border"/>
    
    <!-- Outer Fill -->
    <rect x="959.5" y="122.5"
          width="52" height="52"
          rx="5" fill="#f7f2ea"/>
    

    
      <!-- Inner Border -->
      <rect x="965.5" y="125.5"
            width="40" height="40"
            rx="5" fill="#fffef6" class="inner border"/>
      
      <!-- Inner Fill -->
      <rect x="965.5" y="125.5"
            width="40" height="40"
            rx="5" fill="#fffef6"/>
      
      

     
   
  </g>

  <g class='  keycap'
  >

  
    <!-- Outer Border -->
    <rect x="797.5" y="176.5"
          width="52" height="52"
          rx="5" fill="#f7f2ea" class="outer border"/>
    
    <!-- Outer Fill -->
    <rect x="797.5" y="176.5"
          width="52" height="52"
          rx="5" fill="#f7f2ea"/>
    

    
      <!-- Inner Border -->
      <rect x="803.5" y="179.5"
            width="40" height="40"
            rx="5" fill="#fffef6" class="inner border"/>
      
      <!-- Inner Fill -->
      <rect x="803.5" y="179.5"
            width="40" height="40"
            rx="5" fill="#fffef6"/>
      
      

     
   
  </g>

  <g class='  keycap'
  >

  
    <!-- Outer Border -->
    <rect x="851.5" y="176.5"
          width="52" height="52"
          rx="5" fill="#f7f2ea" class="outer border"/>
    
    <!-- Outer Fill -->
    <rect x="851.5" y="176.5"
          width="52" height="52"
          rx="5" fill="#f7f2ea"/>
    

    
      <!-- Inner Border -->
      <rect x="857.5" y="179.5"
            width="40" height="40"
            rx="5" fill="#fffef6" class="inner border"/>
      
      <!-- Inner Fill -->
      <rect x="857.5" y="179.5"
            width="40" height="40"
            rx="5" fill="#fffef6"/>
      
      

     
   
  </g>

  <g class='  keycap'
  >

  
    <!-- Outer Border -->
    <rect x="905.5" y="176.5"
          width="52" height="52"
          rx="5" fill="#f7f2ea" class="outer border"/>
    
    <!-- Outer Fill -->
    <rect x="905.5" y="176.5"
          width="52" height="52"
          rx="5" fill="#f7f2ea"/>
    

    
      <!-- Inner Border -->
      <rect x="911.5" y="179.5"
            width="40" height="40"
            rx="5" fill="#fffef6" class="inner border"/>
      
      <!-- Inner Fill -->
      <rect x="911.5" y="179.5"
            width="40" height="40"
            rx="5" fill="#fffef6"/>
      
      

     
   
  </g>

  <g class='  keycap'
  >

  
    <!-- Outer Border -->
    <rect x="959.5" y="176.5"
          width="52" height="52"
          rx="5" fill="#f7f2ea" class="outer border"/>
    
    <!-- Outer Fill -->
    <rect x="959.5" y="176.5"
          width="52" height="52"
          rx="5" fill="#f7f2ea"/>
    

    
      <!-- Inner Border -->
      <rect x="965.5" y="179.5"
            width="40" height="40"
            rx="5" fill="#fffef6" class="inner border"/>
      
      <!-- Inner Fill -->
      <rect x="965.5" y="179.5"
            width="40" height="40"
            rx="5" fill="#fffef6"/>
      
      

     
   
  </g>

  <g class='  keycap'
  >

  
    <!-- Outer Border -->
    <rect x="1162" y="176.5"
          width="52" height="52"
          rx="5" fill="#f7f2ea" class="outer border"/>
    
    <!-- Outer Fill -->
    <rect x="1162" y="176.5"
          width="52" height="52"
          rx="5" fill="#f7f2ea"/>
    

    
      <!-- Inner Border -->
      <rect x="1168" y="179.5"
            width="40" height="40"
            rx="5" fill="#fffef6" class="inner border"/>
      
      <!-- Inner Fill -->
      <rect x="1168" y="179.5"
            width="40" height="40"
            rx="5" fill="#fffef6"/>
      
      

     
   
  </g>

  <g class='  keycap'
  >

  
    <!-- Outer Border -->
    <rect x="1216" y="176.5"
          width="52" height="52"
          rx="5" fill="#f7f2ea" class="outer border"/>
    
    <!-- Outer Fill -->
    <rect x="1216" y="176.5"
          width="52" height="52"
          rx="5" fill="#f7f2ea"/>
    

    
      <!-- Inner Border -->
      <rect x="1222" y="179.5"
            width="40" height="40"
            rx="5" fill="#fffef6" class="inner border"/>
      
      <!-- Inner Fill -->
      <rect x="1222" y="179.5"
            width="40" height="40"
            rx="5" fill="#fffef6"/>
      
      

     
   
  </g>

  <g class='  keycap'
  >

  
    <!-- Outer Border -->
    <rect x="95.5" y="203.5"
          width="52" height="52"
          rx="5" fill="#f7f2ea" class="outer border"/>
    
    <!-- Outer Fill -->
    <rect x="95.5" y="203.5"
          width="52" height="52"
          rx="5" fill="#f7f2ea"/>
    

    
      <!-- Inner Border -->
      <rect x="101.5" y="206.5"
            width="40" height="40"
            rx="5" fill="#fffef6" class="inner border"/>
      
      <!-- Inner Fill -->
      <rect x="101.5" y="206.5"
            width="40" height="40"
            rx="5" fill="#fffef6"/>
      
      

     
   
  </g>

  <g class='  keycap'
  >

  
    <!-- Outer Border -->
    <rect x="149.5" y="203.5"
          width="52" height="52"
          rx="5" fill="#f7f2ea" class="outer border"/>
    
    <!-- Outer Fill -->
    <rect x="149.5" y="203.5"
          width="52" height="52"
          rx="5" fill="#f7f2ea"/>
    

    
      <!-- Inner Border -->
      <rect x="155.5" y="206.5"
            width="40" height="40"
            rx="5" fill="#fffef6" class="inner border"/>
      
      <!-- Inner Fill -->
      <rect x="155.5" y="206.5"
            width="40" height="40"
            rx="5" fill="#fffef6"/>
      
      

     
   
  </g>

  <g class='  keycap'
  >

  
    <!-- Outer Border -->
    <rect x="203.5" y="203.5"
          width="52" height="52"
          rx="5" fill="#f7f2ea" class="outer border"/>
    
    <!-- Outer Fill -->
    <rect x="203.5" y="203.5"
          width="52" height="52"
          rx="5" fill="#f7f2ea"/>
    

    
      <!-- Inner Border -->
      <rect x="209.5" y="206.5"
            width="40" height="40"
            rx="5" fill="#fffef6" class="inner border"/>
      
      <!-- Inner Fill -->
      <rect x="209.5" y="206.5"
            width="40" height="40"
            rx="5" fill="#fffef6"/>
      
      

     
   
  </g>

  <g class='  keycap'
  >

  
    <!-- Outer Border -->
    <rect x="257.5" y="203.5"
          width="52" height="52"
          rx="5" fill="#f7f2ea" class="outer border"/>
    
    <!-- Outer Fill -->
    <rect x="257.5" y="203.5"
          width="52" height="52"
          rx="5" fill="#f7f2ea"/>
    

    
      <!-- Inner Border -->
      <rect x="263.5" y="206.5"
            width="40" height="40"
            rx="5" fill="#fffef6" class="inner border"/>
      
      <!-- Inner Fill -->
      <rect x="263.5" y="206.5"
            width="40" height="40"
            rx="5" fill="#fffef6"/>
      
      

     
   
  </g>

  <g class='  keycap'
  >

  
    <!-- Outer Border -->
    <rect x="379" y="203.5"
          width="52" height="52"
          rx="5" fill="#f7f2ea" class="outer border"/>
    
    <!-- Outer Fill -->
    <rect x="379" y="203.5"
          width="52" height="52"
          rx="5" fill="#f7f2ea"/>
    

    
      <!-- Inner Border -->
      <rect x="385" y="206.5"
            width="40" height="40"
            rx="5" fill="#fffef6" class="inner border"/>
      
      <!-- Inner Fill -->
      <rect x="385" y="206.5"
            width="40" height="40"
            rx="5" fill="#fffef6"/>
      
      

     
   
  </g>

  <g class='  keycap'
  >

  
    <!-- Outer Border -->
    <rect x="433" y="203.5"
          width="52" height="52"
          rx="5" fill="#f7f2ea" class="outer border"/>
    
    <!-- Outer Fill -->
    <rect x="433" y="203.5"
          width="52" height="52"
          rx="5" fill="#f7f2ea"/>
    

    
      <!-- Inner Border -->
      <rect x="439" y="206.5"
            width="40" height="40"
            rx="5" fill="#fffef6" class="inner border"/>
      
      <!-- Inner Fill -->
      <rect x="439" y="206.5"
            width="40" height="40"
            rx="5" fill="#fffef6"/>
      
      

     
   
  </g>

  <g class='  keycap'
  >

  
    <!-- Outer Border -->
    <rect x="487" y="203.5"
          width="52" height="52"
          rx="5" fill="#f7f2ea" class="outer border"/>
    
    <!-- Outer Fill -->
    <rect x="487" y="203.5"
          width="52" height="52"
          rx="5" fill="#f7f2ea"/>
    

    
      <!-- Inner Border -->
      <rect x="493" y="206.5"
            width="40" height="40"
            rx="5" fill="#fffef6" class="inner border"/>
      
      <!-- Inner Fill -->
      <rect x="493" y="206.5"
            width="40" height="40"
            rx="5" fill="#fffef6"/>
      
      

     
   
  </g>

  <g class='  keycap'
  >

  
    <!-- Outer Border -->
    <rect x="541" y="203.5"
          width="52" height="52"
          rx="5" fill="#f7f2ea" class="outer border"/>
    
    <!-- Outer Fill -->
    <rect x="541" y="203.5"
          width="52" height="52"
          rx="5" fill="#f7f2ea"/>
    

    
      <!-- Inner Border -->
      <rect x="547" y="206.5"
            width="40" height="40"
            rx="5" fill="#fffef6" class="inner border"/>
      
      <!-- Inner Fill -->
      <rect x="547" y="206.5"
            width="40" height="40"
            rx="5" fill="#fffef6"/>
      
      

     
   
  </g>

  <g class='  keycap'
  >

  
    <!-- Outer Border -->
    <rect x="797.5" y="230.5"
          width="52" height="52"
          rx="5" fill="#f7f2ea" class="outer border"/>
    
    <!-- Outer Fill -->
    <rect x="797.5" y="230.5"
          width="52" height="52"
          rx="5" fill="#f7f2ea"/>
    

    
      <!-- Inner Border -->
      <rect x="803.5" y="233.5"
            width="40" height="40"
            rx="5" fill="#fffef6" class="inner border"/>
      
      <!-- Inner Fill -->
      <rect x="803.5" y="233.5"
            width="40" height="40"
            rx="5" fill="#fffef6"/>
      
      

     
   
  </g>

  <g class='  keycap'
  >

  
    <!-- Outer Border -->
    <rect x="851.5" y="230.5"
          width="52" height="52"
          rx="5" fill="#f7f2ea" class="outer border"/>
    
    <!-- Outer Fill -->
    <rect x="851.5" y="230.5"
          width="52" height="52"
          rx="5" fill="#f7f2ea"/>
    

    
      <!-- Inner Border -->
      <rect x="857.5" y="233.5"
            width="40" height="40"
            rx="5" fill="#fffef6" class="inner border"/>
      
      <!-- Inner Fill -->
      <rect x="857.5" y="233.5"
            width="40" height="40"
            rx="5" fill="#fffef6"/>
      
      

     
   
  </g>

  <g class='  keycap'
  >

  
    <!-- Outer Border -->
    <rect x="905.5" y="230.5"
          width="52" height="52"
          rx="5" fill="#f7f2ea" class="outer border"/>
    
    <!-- Outer Fill -->
    <rect x="905.5" y="230.5"
          width="52" height="52"
          rx="5" fill="#f7f2ea"/>
    

    
      <!-- Inner Border -->
      <rect x="911.5" y="233.5"
            width="40" height="40"
            rx="5" fill="#fffef6" class="inner border"/>
      
      <!-- Inner Fill -->
      <rect x="911.5" y="233.5"
            width="40" height="40"
            rx="5" fill="#fffef6"/>
      
      

     
   
  </g>

  <g class='  keycap'
  >

  
    <!-- Outer Border -->
    <rect x="959.5" y="230.5"
          width="52" height="52"
          rx="5" fill="#f7f2ea" class="outer border"/>
    
    <!-- Outer Fill -->
    <rect x="959.5" y="230.5"
          width="52" height="52"
          rx="5" fill="#f7f2ea"/>
    

    
      <!-- Inner Border -->
      <rect x="965.5" y="233.5"
            width="40" height="40"
            rx="5" fill="#fffef6" class="inner border"/>
      
      <!-- Inner Fill -->
      <rect x="965.5" y="233.5"
            width="40" height="40"
            rx="5" fill="#fffef6"/>
      
      

     
   
  </g>

  <g class='  keycap'
  >

  
    <!-- Outer Border -->
    <rect x="1108" y="230.5"
          width="52" height="52"
          rx="5" fill="#f7f2ea" class="outer border"/>
    
    <!-- Outer Fill -->
    <rect x="1108" y="230.5"
          width="52" height="52"
          rx="5" fill="#f7f2ea"/>
    

    
      <!-- Inner Border -->
      <rect x="1114" y="233.5"
            width="40" height="40"
            rx="5" fill="#fffef6" class="inner border"/>
      
      <!-- Inner Fill -->
      <rect x="1114" y="233.5"
            width="40" height="40"
            rx="5" fill="#fffef6"/>
      
      

     
   
  </g>

  <g class='  keycap'
  >

  
    <!-- Outer Border -->
    <rect x="1162" y="230.5"
          width="52" height="52"
          rx="5" fill="#f7f2ea" class="outer border"/>
    
    <!-- Outer Fill -->
    <rect x="1162" y="230.5"
          width="52" height="52"
          rx="5" fill="#f7f2ea"/>
    

    
      <!-- Inner Border -->
      <rect x="1168" y="233.5"
            width="40" height="40"
            rx="5" fill="#fffef6" class="inner border"/>
      
      <!-- Inner Fill -->
      <rect x="1168" y="233.5"
            width="40" height="40"
            rx="5" fill="#fffef6"/>
      
      

     
   
  </g>

  <g class='  keycap'
  >

  
    <!-- Outer Border -->
    <rect x="1216" y="230.5"
          width="52" height="52"
          rx="5" fill="#f7f2ea" class="outer border"/>
    
    <!-- Outer Fill -->
    <rect x="1216" y="230.5"
          width="52" height="52"
          rx="5" fill="#f7f2ea"/>
    

    
      <!-- Inner Border -->
      <rect x="1222" y="233.5"
            width="40" height="40"
            rx="5" fill="#fffef6" class="inner border"/>
      
      <!-- Inner Fill -->
      <rect x="1222" y="233.5"
            width="40" height="40"
            rx="5" fill="#fffef6"/>
      
      

     
   
  </g>

  <g class='  keycap'
  >

  
    <!-- Outer Border -->
    <rect x="95.5" y="257.5"
          width="52" height="52"
          rx="5" fill="#f7f2ea" class="outer border"/>
    
    <!-- Outer Fill -->
    <rect x="95.5" y="257.5"
          width="52" height="52"
          rx="5" fill="#f7f2ea"/>
    

    
      <!-- Inner Border -->
      <rect x="101.5" y="260.5"
            width="40" height="40"
            rx="5" fill="#fffef6" class="inner border"/>
      
      <!-- Inner Fill -->
      <rect x="101.5" y="260.5"
            width="40" height="40"
            rx="5" fill="#fffef6"/>
      
      

     
   
  </g>

  <g class='  keycap'
  >

  
    <!-- Outer Border -->
    <rect x="149.5" y="257.5"
          width="52" height="52"
          rx="5" fill="#f7f2ea" class="outer border"/>
    
    <!-- Outer Fill -->
    <rect x="149.5" y="257.5"
          width="52" height="52"
          rx="5" fill="#f7f2ea"/>
    

    
      <!-- Inner Border -->
      <rect x="155.5" y="260.5"
            width="40" height="40"
            rx="5" fill="#fffef6" class="inner border"/>
      
      <!-- Inner Fill -->
      <rect x="155.5" y="260.5"
            width="40" height="40"
            rx="5" fill="#fffef6"/>
      
      

     
   
  </g>

  <g class='  keycap'
  >

  
    <!-- Outer Border -->
    <rect x="203.5" y="257.5"
          width="52" height="52"
          rx="5" fill="#f7f2ea" class="outer border"/>
    
    <!-- Outer Fill -->
    <rect x="203.5" y="257.5"
          width="52" height="52"
          rx="5" fill="#f7f2ea"/>
    

    
      <!-- Inner Border -->
      <rect x="209.5" y="260.5"
            width="40" height="40"
            rx="5" fill="#fffef6" class="inner border"/>
      
      <!-- Inner Fill -->
      <rect x="209.5" y="260.5"
            width="40" height="40"
            rx="5" fill="#fffef6"/>
      
      

     
   
  </g>

  <g class='  keycap'
  >

  
    <!-- Outer Border -->
    <rect x="257.5" y="257.5"
          width="52" height="52"
          rx="5" fill="#f7f2ea" class="outer border"/>
    
    <!-- Outer Fill -->
    <rect x="257.5" y="257.5"
          width="52" height="52"
          rx="5" fill="#f7f2ea"/>
    

    
      <!-- Inner Border -->
      <rect x="263.5" y="260.5"
            width="40" height="40"
            rx="5" fill="#fffef6" class="inner border"/>
      
      <!-- Inner Fill -->
      <rect x="263.5" y="260.5"
            width="40" height="40"
            rx="5" fill="#fffef6"/>
      
      

     
   
  </g>

  <g class='  keycap'
  >

  
    <!-- Outer Border -->
    <rect x="379" y="257.5"
          width="52" height="52"
          rx="5" fill="#f7f2ea" class="outer border"/>
    
    <!-- Outer Fill -->
    <rect x="379" y="257.5"
          width="52" height="52"
          rx="5" fill="#f7f2ea"/>
    

    
      <!-- Inner Border -->
      <rect x="385" y="260.5"
            width="40" height="40"
            rx="5" fill="#fffef6" class="inner border"/>
      
      <!-- Inner Fill -->
      <rect x="385" y="260.5"
            width="40" height="40"
            rx="5" fill="#fffef6"/>
      
      

     
   
  </g>

  <g class='  keycap'
  >

  
    <!-- Outer Border -->
    <rect x="433" y="257.5"
          width="52" height="52"
          rx="5" fill="#f7f2ea" class="outer border"/>
    
    <!-- Outer Fill -->
    <rect x="433" y="257.5"
          width="52" height="52"
          rx="5" fill="#f7f2ea"/>
    

    
      <!-- Inner Border -->
      <rect x="439" y="260.5"
            width="40" height="40"
            rx="5" fill="#fffef6" class="inner border"/>
      
      <!-- Inner Fill -->
      <rect x="439" y="260.5"
            width="40" height="40"
            rx="5" fill="#fffef6"/>
      
      

     
   
  </g>

  <g class='  keycap'
  >

  
    <!-- Outer Border -->
    <rect x="487" y="257.5"
          width="52" height="52"
          rx="5" fill="#f7f2ea" class="outer border"/>
    
    <!-- Outer Fill -->
    <rect x="487" y="257.5"
          width="52" height="52"
          rx="5" fill="#f7f2ea"/>
    

    
      <!-- Inner Border -->
      <rect x="493" y="260.5"
            width="40" height="40"
            rx="5" fill="#fffef6" class="inner border"/>
      
      <!-- Inner Fill -->
      <rect x="493" y="260.5"
            width="40" height="40"
            rx="5" fill="#fffef6"/>
      
      

     
   
  </g>

  <g class='  keycap'
  >

  
    <!-- Outer Border -->
    <rect x="541" y="257.5"
          width="52" height="52"
          rx="5" fill="#f7f2ea" class="outer border"/>
    
    <!-- Outer Fill -->
    <rect x="541" y="257.5"
          width="52" height="52"
          rx="5" fill="#f7f2ea"/>
    

    
      <!-- Inner Border -->
      <rect x="547" y="260.5"
            width="40" height="40"
            rx="5" fill="#fffef6" class="inner border"/>
      
      <!-- Inner Fill -->
      <rect x="547" y="260.5"
            width="40" height="40"
            rx="5" fill="#fffef6"/>
      
      

     
   
  </g>

  <g class='  keycap'
  
     transform="rotate(5.8 0 0)"
  >

  
    <!-- Outer Border -->
    <rect x="149.5" y="1"
          width="52" height="52"
          rx="5" fill="#f7f2ea" class="outer border"/>
    
    <!-- Outer Fill -->
    <rect x="149.5" y="1"
          width="52" height="52"
          rx="5" fill="#f7f2ea"/>
    

    
      <!-- Inner Border -->
      <rect x="155.5" y="4"
            width="40" height="40"
            rx="5" fill="#fffef6" class="inner border"/>
      
      <!-- Inner Fill -->
      <rect x="155.5" y="4"
            width="40" height="40"
            rx="5" fill="#fffef6"/>
      
      

     
   
  </g>

  <g class='  keycap'
  
     transform="rotate(5.8 0 0)"
  >

  
    <!-- Outer Border -->
    <rect x="257.5" y="6.399999999999999"
          width="52" height="52"
          rx="5" fill="#f7f2ea" class="outer border"/>
    
    <!-- Outer Fill -->
    <rect x="257.5" y="6.399999999999999"
          width="52" height="52"
          rx="5" fill="#f7f2ea"/>
    

    
      <!-- Inner Border -->
      <rect x="263.5" y="9.399999999999999"
            width="40" height="40"
            rx="5" fill="#fffef6" class="inner border"/>
      
      <!-- Inner Fill -->
      <rect x="263.5" y="9.399999999999999"
            width="40" height="40"
            rx="5" fill="#fffef6"/>
      
      

     
   
  </g>

  <g class='  keycap'
  
     transform="rotate(5.8 0 0)"
  >

  
    <!-- Outer Border -->
    <rect x="95.5" y="14.500000000000005"
          width="52" height="52"
          rx="5" fill="#f7f2ea" class="outer border"/>
    
    <!-- Outer Fill -->
    <rect x="95.5" y="14.500000000000005"
          width="52" height="52"
          rx="5" fill="#f7f2ea"/>
    

    
      <!-- Inner Border -->
      <rect x="101.5" y="17.500000000000007"
            width="40" height="40"
            rx="5" fill="#fffef6" class="inner border"/>
      
      <!-- Inner Fill -->
      <rect x="101.5" y="17.500000000000007"
            width="40" height="40"
            rx="5" fill="#fffef6"/>
      
      

     
   
  </g>

  <g class='  keycap'
  
     transform="rotate(5.8 0 0)"
  >

  
    <!-- Outer Border -->
    <rect x="203.5" y="14.500000000000005"
          width="52" height="52"
          rx="5" fill="#f7f2ea" class="outer border"/>
    
    <!-- Outer Fill -->
    <rect x="203.5" y="14.500000000000005"
          width="52" height="52"
          rx="5" fill="#f7f2ea"/>
    

    
      <!-- Inner Border -->
      <rect x="209.5" y="17.500000000000007"
            width="40" height="40"
            rx="5" fill="#fffef6" class="inner border"/>
      
      <!-- Inner Fill -->
      <rect x="209.5" y="17.500000000000007"
            width="40" height="40"
            rx="5" fill="#fffef6"/>
      
      

     
   
  </g>

  <g class='  keycap'
  
     transform="rotate(5.8 0 0)"
  >

  
    <!-- Outer Border -->
    <rect x="41.5" y="41.5"
          width="52" height="52"
          rx="5" fill="#f7f2ea" class="outer border"/>
    
    <!-- Outer Fill -->
    <rect x="41.5" y="41.5"
          width="52" height="52"
          rx="5" fill="#f7f2ea"/>
    

    
      <!-- Inner Border -->
      <rect x="47.5" y="44.5"
            width="40" height="40"
            rx="5" fill="#fffef6" class="inner border"/>
      
      <!-- Inner Fill -->
      <rect x="47.5" y="44.5"
            width="40" height="40"
            rx="5" fill="#fffef6"/>
      
      

     
   
  </g>

  <g class='  keycap'
  
     transform="rotate(5.8 0 0)"
  >

  
    <!-- Outer Border -->
    <rect x="149.5" y="55"
          width="52" height="52"
          rx="5" fill="#f7f2ea" class="outer border"/>
    
    <!-- Outer Fill -->
    <rect x="149.5" y="55"
          width="52" height="52"
          rx="5" fill="#f7f2ea"/>
    

    
      <!-- Inner Border -->
      <rect x="155.5" y="58"
            width="40" height="40"
            rx="5" fill="#fffef6" class="inner border"/>
      
      <!-- Inner Fill -->
      <rect x="155.5" y="58"
            width="40" height="40"
            rx="5" fill="#fffef6"/>
      
      

     
   
  </g>

  <g class='  keycap'
  
     transform="rotate(5.8 0 0)"
  >

  
    <!-- Outer Border -->
    <rect x="257.5" y="60.400000000000006"
          width="52" height="52"
          rx="5" fill="#f7f2ea" class="outer border"/>
    
    <!-- Outer Fill -->
    <rect x="257.5" y="60.400000000000006"
          width="52" height="52"
          rx="5" fill="#f7f2ea"/>
    

    
      <!-- Inner Border -->
      <rect x="263.5" y="63.400000000000006"
            width="40" height="40"
            rx="5" fill="#fffef6" class="inner border"/>
      
      <!-- Inner Fill -->
      <rect x="263.5" y="63.400000000000006"
            width="40" height="40"
            rx="5" fill="#fffef6"/>
      
      

     
   
  </g>

  <g class='  keycap'
  
     transform="rotate(5.8 0 0)"
  >

  
    <!-- Outer Border -->
    <rect x="95.5" y="68.5"
          width="52" height="52"
          rx="5" fill="#f7f2ea" class="outer border"/>
    
    <!-- Outer Fill -->
    <rect x="95.5" y="68.5"
          width="52" height="52"
          rx="5" fill="#f7f2ea"/>
    

    
      <!-- Inner Border -->
      <rect x="101.5" y="71.5"
            width="40" height="40"
            rx="5" fill="#fffef6" class="inner border"/>
      
      <!-- Inner Fill -->
      <rect x="101.5" y="71.5"
            width="40" height="40"
            rx="5" fill="#fffef6"/>
      
      

     
   
  </g>

  <g class='  keycap'
  
     transform="rotate(5.8 0 0)"
  >

  
    <!-- Outer Border -->
    <rect x="203.5" y="68.5"
          width="52" height="52"
          rx="5" fill="#f7f2ea" class="outer border"/>
    
    <!-- Outer Fill -->
    <rect x="203.5" y="68.5"
          width="52" height="52"
          rx="5" fill="#f7f2ea"/>
    

    
      <!-- Inner Border -->
      <rect x="209.5" y="71.5"
            width="40" height="40"
            rx="5" fill="#fffef6" class="inner border"/>
      
      <!-- Inner Fill -->
      <rect x="209.5" y="71.5"
            width="40" height="40"
            rx="5" fill="#fffef6"/>
      
      

     
   
  </g>

  <g class='  keycap'
  
     transform="rotate(5.8 0 0)"
  >

  
    <!-- Outer Border -->
    <rect x="41.5" y="95.5"
          width="52" height="52"
          rx="5" fill="#f7f2ea" class="outer border"/>
    
    <!-- Outer Fill -->
    <rect x="41.5" y="95.5"
          width="52" height="52"
          rx="5" fill="#f7f2ea"/>
    

    
      <!-- Inner Border -->
      <rect x="47.5" y="98.5"
            width="40" height="40"
            rx="5" fill="#fffef6" class="inner border"/>
      
      <!-- Inner Fill -->
      <rect x="47.5" y="98.5"
            width="40" height="40"
            rx="5" fill="#fffef6"/>
      
      

     
   
  </g>

  <g class='  keycap'
  
     transform="rotate(5.8 0 0)"
  >

  
    <!-- Outer Border -->
    <rect x="149.5" y="109"
          width="52" height="52"
          rx="5" fill="#f7f2ea" class="outer border"/>
    
    <!-- Outer Fill -->
    <rect x="149.5" y="109"
          width="52" height="52"
          rx="5" fill="#f7f2ea"/>
    

    
      <!-- Inner Border -->
      <rect x="155.5" y="112"
            width="40" height="40"
            rx="5" fill="#fffef6" class="inner border"/>
      
      <!-- Inner Fill -->
      <rect x="155.5" y="112"
            width="40" height="40"
            rx="5" fill="#fffef6"/>
      
      

     
   
  </g>

  <g class='  keycap'
  
     transform="rotate(5.8 0 0)"
  >

  
    <!-- Outer Border -->
    <rect x="257.5" y="114.4"
          width="52" height="52"
          rx="5" fill="#f7f2ea" class="outer border"/>
    
    <!-- Outer Fill -->
    <rect x="257.5" y="114.4"
          width="52" height="52"
          rx="5" fill="#f7f2ea"/>
    

    
      <!-- Inner Border -->
      <rect x="263.5" y="117.4"
            width="40" height="40"
            rx="5" fill="#fffef6" class="inner border"/>
      
      <!-- Inner Fill -->
      <rect x="263.5" y="117.4"
            width="40" height="40"
            rx="5" fill="#fffef6"/>
      
      

     
   
  </g>

  <g class='  keycap'
  
     transform="rotate(5.8 0 0)"
  >

  
    <!-- Outer Border -->
    <rect x="95.5" y="122.5"
          width="52" height="52"
          rx="5" fill="#f7f2ea" class="outer border"/>
    
    <!-- Outer Fill -->
    <rect x="95.5" y="122.5"
          width="52" height="52"
          rx="5" fill="#f7f2ea"/>
    

    
      <!-- Inner Border -->
      <rect x="101.5" y="125.5"
            width="40" height="40"
            rx="5" fill="#fffef6" class="inner border"/>
      
      <!-- Inner Fill -->
      <rect x="101.5" y="125.5"
            width="40" height="40"
            rx="5" fill="#fffef6"/>
      
      

     
   
  </g>

  <g class='  keycap'
  
     transform="rotate(5.8 0 0)"
  >

  
    <!-- Outer Border -->
    <rect x="203.5" y="122.5"
          width="52" height="52"
          rx="5" fill="#f7f2ea" class="outer border"/>
    
    <!-- Outer Fill -->
    <rect x="203.5" y="122.5"
          width="52" height="52"
          rx="5" fill="#f7f2ea"/>
    

    
      <!-- Inner Border -->
      <rect x="209.5" y="125.5"
            width="40" height="40"
            rx="5" fill="#fffef6" class="inner border"/>
      
      <!-- Inner Fill -->
      <rect x="209.5" y="125.5"
            width="40" height="40"
            rx="5" fill="#fffef6"/>
      
      

     
   
  </g>

  <g class='  keycap'
  
     transform="rotate(5.8 0 0)"
  >

  
    <!-- Outer Border -->
    <rect x="41.5" y="149.5"
          width="52" height="52"
          rx="5" fill="#f7f2ea" class="outer border"/>
    
    <!-- Outer Fill -->
    <rect x="41.5" y="149.5"
          width="52" height="52"
          rx="5" fill="#f7f2ea"/>
    

    
      <!-- Inner Border -->
      <rect x="47.5" y="152.5"
            width="40" height="40"
            rx="5" fill="#fffef6" class="inner border"/>
      
      <!-- Inner Fill -->
      <rect x="47.5" y="152.5"
            width="40" height="40"
            rx="5" fill="#fffef6"/>
      
      

     
   
  </g>

  <g class='  keycap'
  
     transform="rotate(-5.8 0 0)"
  >

  
    <!-- Outer Border -->
    <rect x="487" y="68.5"
          width="52" height="52"
          rx="5" fill="#f7f2ea" class="outer border"/>
    
    <!-- Outer Fill -->
    <rect x="487" y="68.5"
          width="52" height="52"
          rx="5" fill="#f7f2ea"/>
    

    
      <!-- Inner Border -->
      <rect x="493" y="71.5"
            width="40" height="40"
            rx="5" fill="#fffef6" class="inner border"/>
      
      <!-- Inner Fill -->
      <rect x="493" y="71.5"
            width="40" height="40"
            rx="5" fill="#fffef6"/>
      
      

     
   
  </g>

  <g class='  keycap'
  
     transform="rotate(-5.8 0 0)"
  >

  
    <!-- Outer Border -->
    <rect x="379" y="76.6"
          width="52" height="52"
          rx="5" fill="#f7f2ea" class="outer border"/>
    
    <!-- Outer Fill -->
    <rect x="379" y="76.6"
          width="52" height="52"
          rx="5" fill="#f7f2ea"/>
    

    
      <!-- Inner Border -->
      <rect x="385" y="79.6"
            width="40" height="40"
            rx="5" fill="#fffef6" class="inner border"/>
      
      <!-- Inner Fill -->
      <rect x="385" y="79.6"
            width="40" height="40"
            rx="5" fill="#fffef6"/>
      
      

     
   
  </g>

  <g class='  keycap'
  
     transform="rotate(-5.8 0 0)"
  >

  
    <!-- Outer Border -->
    <rect x="541" y="82"
          width="52" height="52"
          rx="5" fill="#f7f2ea" class="outer border"/>
    
    <!-- Outer Fill -->
    <rect x="541" y="82"
          width="52" height="52"
          rx="5" fill="#f7f2ea"/>
    

    
      <!-- Inner Border -->
      <rect x="547" y="85"
            width="40" height="40"
            rx="5" fill="#fffef6" class="inner border"/>
      
      <!-- Inner Fill -->
      <rect x="547" y="85"
            width="40" height="40"
            rx="5" fill="#fffef6"/>
      
      

     
   
  </g>

  <g class='  keycap'
  
     transform="rotate(-5.8 0 0)"
  >

  
    <!-- Outer Border -->
    <rect x="433" y="84.7"
          width="52" height="52"
          rx="5" fill="#f7f2ea" class="outer border"/>
    
    <!-- Outer Fill -->
    <rect x="433" y="84.7"
          width="52" height="52"
          rx="5" fill="#f7f2ea"/>
    

    
      <!-- Inner Border -->
      <rect x="439" y="87.7"
            width="40" height="40"
            rx="5" fill="#fffef6" class="inner border"/>
      
      <!-- Inner Fill -->
      <rect x="439" y="87.7"
            width="40" height="40"
            rx="5" fill="#fffef6"/>
      
      

     
   
  </g>

  <g class='  keycap'
  
     transform="rotate(-5.8 0 0)"
  >

  
    <!-- Outer Border -->
    <rect x="595" y="108.99999999999999"
          width="52" height="52"
          rx="5" fill="#f7f2ea" class="outer border"/>
    
    <!-- Outer Fill -->
    <rect x="595" y="108.99999999999999"
          width="52" height="52"
          rx="5" fill="#f7f2ea"/>
    

    
      <!-- Inner Border -->
      <rect x="601" y="111.99999999999999"
            width="40" height="40"
            rx="5" fill="#fffef6" class="inner border"/>
      
      <!-- Inner Fill -->
      <rect x="601" y="111.99999999999999"
            width="40" height="40"
            rx="5" fill="#fffef6"/>
      
      

     
   
  </g>

  <g class='  keycap'
  
     transform="rotate(-5.8 0 0)"
  >

  
    <!-- Outer Border -->
    <rect x="487" y="122.5"
          width="52" height="52"
          rx="5" fill="#f7f2ea" class="outer border"/>
    
    <!-- Outer Fill -->
    <rect x="487" y="122.5"
          width="52" height="52"
          rx="5" fill="#f7f2ea"/>
    

    
      <!-- Inner Border -->
      <rect x="493" y="125.5"
            width="40" height="40"
            rx="5" fill="#fffef6" class="inner border"/>
      
      <!-- Inner Fill -->
      <rect x="493" y="125.5"
            width="40" height="40"
            rx="5" fill="#fffef6"/>
      
      

     
   
  </g>

  <g class='  keycap'
  
     transform="rotate(-5.8 0 0)"
  >

  
    <!-- Outer Border -->
    <rect x="379" y="130.6"
          width="52" height="52"
          rx="5" fill="#f7f2ea" class="outer border"/>
    
    <!-- Outer Fill -->
    <rect x="379" y="130.6"
          width="52" height="52"
          rx="5" fill="#f7f2ea"/>
    

    
      <!-- Inner Border -->
      <rect x="385" y="133.6"
            width="40" height="40"
            rx="5" fill="#fffef6" class="inner border"/>
      
      <!-- Inner Fill -->
      <rect x="385" y="133.6"
            width="40" height="40"
            rx="5" fill="#fffef6"/>
      
      

     
   
  </g>

  <g class='  keycap'
  
     transform="rotate(-5.8 0 0)"
  >

  
    <!-- Outer Border -->
    <rect x="541" y="136"
          width="52" height="52"
          rx="5" fill="#f7f2ea" class="outer border"/>
    
    <!-- Outer Fill -->
    <rect x="541" y="136"
          width="52" height="52"
          rx="5" fill="#f7f2ea"/>
    

    
      <!-- Inner Border -->
      <rect x="547" y="139"
            width="40" height="40"
            rx="5" fill="#fffef6" class="inner border"/>
      
      <!-- Inner Fill -->
      <rect x="547" y="139"
            width="40" height="40"
            rx="5" fill="#fffef6"/>
      
      

     
   
  </g>

  <g class='  keycap'
  
     transform="rotate(-5.8 0 0)"
  >

  
    <!-- Outer Border -->
    <rect x="433" y="138.7"
          width="52" height="52"
          rx="5" fill="#f7f2ea" class="outer border"/>
    
    <!-- Outer Fill -->
    <rect x="433" y="138.7"
          width="52" height="52"
          rx="5" fill="#f7f2ea"/>
    

    
      <!-- Inner Border -->
      <rect x="439" y="141.7"
            width="40" height="40"
            rx="5" fill="#fffef6" class="inner border"/>
      
      <!-- Inner Fill -->
      <rect x="439" y="141.7"
            width="40" height="40"
            rx="5" fill="#fffef6"/>
      
      

     
   
  </g>

  <g class='  keycap'
  
     transform="rotate(-5.8 0 0)"
  >

  
    <!-- Outer Border -->
    <rect x="595" y="163"
          width="52" height="52"
          rx="5" fill="#f7f2ea" class="outer border"/>
    
    <!-- Outer Fill -->
    <rect x="595" y="163"
          width="52" height="52"
          rx="5" fill="#f7f2ea"/>
    

    
      <!-- Inner Border -->
      <rect x="601" y="166"
            width="40" height="40"
            rx="5" fill="#fffef6" class="inner border"/>
      
      <!-- Inner Fill -->
      <rect x="601" y="166"
            width="40" height="40"
            rx="5" fill="#fffef6"/>
      
      

     
   
  </g>

  <g class='  keycap'
  
     transform="rotate(-5.8 0 0)"
  >

  
    <!-- Outer Border -->
    <rect x="487" y="176.5"
          width="52" height="52"
          rx="5" fill="#f7f2ea" class="outer border"/>
    
    <!-- Outer Fill -->
    <rect x="487" y="176.5"
          width="52" height="52"
          rx="5" fill="#f7f2ea"/>
    

    
      <!-- Inner Border -->
      <rect x="493" y="179.5"
            width="40" height="40"
            rx="5" fill="#fffef6" class="inner border"/>
      
      <!-- Inner Fill -->
      <rect x="493" y="179.5"
            width="40" height="40"
            rx="5" fill="#fffef6"/>
      
      

     
   
  </g>

  <g class='  keycap'
  
     transform="rotate(-5.8 0 0)"
  >

  
    <!-- Outer Border -->
    <rect x="379" y="184.6"
          width="52" height="52"
          rx="5" fill="#f7f2ea" class="outer border"/>
    
    <!-- Outer Fill -->
    <rect x="379" y="184.6"
          width="52" height="52"
          rx="5" fill="#f7f2ea"/>
    

    
      <!-- Inner Border -->
      <rect x="385" y="187.6"
            width="40" height="40"
            rx="5" fill="#fffef6" class="inner border"/>
      
      <!-- Inner Fill -->
      <rect x="385" y="187.6"
            width="40" height="40"
            rx="5" fill="#fffef6"/>
      
      

     
   
  </g>

  <g class='  keycap'
  
     transform="rotate(-5.8 0 0)"
  >

  
    <!-- Outer Border -->
    <rect x="541" y="190.00000000000003"
          width="52" height="52"
          rx="5" fill="#f7f2ea" class="outer border"/>
    
    <!-- Outer Fill -->
    <rect x="541" y="190.00000000000003"
          width="52" height="52"
          rx="5" fill="#f7f2ea"/>
    

    
      <!-- Inner Border -->
      <rect x="547" y="193.00000000000003"
            width="40" height="40"
            rx="5" fill="#fffef6" class="inner border"/>
      
      <!-- Inner Fill -->
      <rect x="547" y="193.00000000000003"
            width="40" height="40"
            rx="5" fill="#fffef6"/>
      
      

     
   
  </g>

  <g class='  keycap'
  
     transform="rotate(-5.8 0 0)"
  >

  
    <!-- Outer Border -->
    <rect x="433" y="192.7"
          width="52" height="52"
          rx="5" fill="#f7f2ea" class="outer border"/>
    
    <!-- Outer Fill -->
    <rect x="433" y="192.7"
          width="52" height="52"
          rx="5" fill="#f7f2ea"/>
    

    
      <!-- Inner Border -->
      <rect x="439" y="195.7"
            width="40" height="40"
            rx="5" fill="#fffef6" class="inner border"/>
      
      <!-- Inner Fill -->
      <rect x="439" y="195.7"
            width="40" height="40"
            rx="5" fill="#fffef6"/>
      
      

     
   
  </g>

  <g class='  keycap'
  
     transform="rotate(-5.8 0 0)"
  >

  
    <!-- Outer Border -->
    <rect x="595" y="217"
          width="52" height="52"
          rx="5" fill="#f7f2ea" class="outer border"/>
    
    <!-- Outer Fill -->
    <rect x="595" y="217"
          width="52" height="52"
          rx="5" fill="#f7f2ea"/>
    

    
      <!-- Inner Border -->
      <rect x="601" y="220"
            width="40" height="40"
            rx="5" fill="#fffef6" class="inner border"/>
      
      <!-- Inner Fill -->
      <rect x="601" y="220"
            width="40" height="40"
            rx="5" fill="#fffef6"/>
      
      

     
   
  </g>

      </g>
    </g>
  </svg>
