<svg width="1299" height="340.5" viewBox="0 0 1299 340.5" xmlns="http://www.w3.org/2000/svg" xmlns:xlink="http://www.w3.org/1999/xlink"><style>.keycap .border { stroke: black; stroke-width: 2; } .keycap .inner.border { stroke: rgba(0, 0, 0, .1); }</style><defs><linearGradient id="DCS"><stop offset="0%" stop-opacity="0"/><stop offset="40%" stop-opacity=".1"/><stop offset="60%" stop-opacity=".1"/><stop offset="100%" stop-opacity="0"/></linearGradient><linearGradient id="SPACE" x1="0%" x2="0%" y1="0%" y2="100%"><stop offset="0%" stop-opacity=".1"/><stop offset="20%" stop-opacity="0"/><stop offset="40%" stop-opacity="0"/><stop offset="100%" stop-opacity=".1"/></linearGradient><radialGradient id="DSA"><stop offset="0%" stop-opacity=".1"/><stop offset="10%" stop-opacity=".1"/><stop offset="100%" stop-opacity="0"/></radialGradient><radialGradient id="SA" xlink:href="#DSA"/></defs><g transform="translate(10 10)"><rect width="1279" height="320.5" stroke="#ddd" fill="#eee" rx="6"/><g class="keycap" data-keymapx="12" data-keymapy="0" transform="translate(5 5)"><rect x="797.5" y="68.5" width="52" height="52" rx="5" fill="#f7f2ea" class="outer border"/><rect x="797.5" y="68.5" width="52" height="52" rx="5" fill="#f7f2ea"/><rect x="803.5" y="71.5" width="40" height="40" rx="5" fill="#fffef6" class="inner border"/><rect x="803.5" y="71.5" width="40" height="40" rx="5" fill="#fffef6"/></g><g class="keycap" data-keymapx="13" data-keymapy="0" transform="translate(5 5)"><rect x="851.5" y="68.5" width="52" height="52" rx="5" fill="#f7f2ea" class="outer border"/><rect x="851.5" y="68.5" width="52" height="52" rx="5" fill="#f7f2ea"/><rect x="857.5" y="71.5" width="40" height="40" rx="5" fill="#fffef6" class="inner border"/><rect x="857.5" y="71.5" width="40" height="40" rx="5" fill="#fffef6"/></g><g class="keycap" data-keymapx="14" data-keymapy="0" transform="translate(5 5)"><rect x="905.5" y="68.5" width="52" height="52" rx="5" fill="#f7f2ea" class="outer border"/><rect x="905.5" y="68.5" width="52" height="52" rx="5" fill="#f7f2ea"/><rect x="911.5" y="71.5" width="40" height="40" rx="5" fill="#fffef6" class="inner border"/><rect x="911.5" y="71.5" width="40" height="40" rx="5" fill="#fffef6"/></g><g class="keycap" data-keymapx="15" data-keymapy="0" transform="translate(5 5)"><rect x="959.5" y="68.5" width="52" height="52" rx="5" fill="#f7f2ea" class="outer border"/><rect x="959.5" y="68.5" width="52" height="52" rx="5" fill="#f7f2ea"/><rect x="965.5" y="71.5" width="40" height="40" rx="5" fill="#fffef6" class="inner border"/><rect x="965.5" y="71.5" width="40" height="40" rx="5" fill="#fffef6"/></g><g class="keycap" data-keymapx="12" data-keymapy="1" transform="translate(5 5)"><rect x="797.5" y="122.5" width="52" height="52" rx="5" fill="#f7f2ea" class="outer border"/><rect x="797.5" y="122.5" width="52" height="52" rx="5" fill="#f7f2ea"/><rect x="803.5" y="125.5" width="40" height="40" rx="5" fill="#fffef6" class="inner border"/><rect x="803.5" y="125.5" width="40" height="40" rx="5" fill="#fffef6"/></g><g class="keycap" data-keymapx="13" data-keymapy="1" transform="translate(5 5)"><rect x="851.5" y="122.5" width="52" height="52" rx="5" fill="#f7f2ea" class="outer border"/><rect x="851.5" y="122.5" width="52" height="52" rx="5" fill="#f7f2ea"/><rect x="857.5" y="125.5" width="40" height="40" rx="5" fill="#fffef6" class="inner border"/><rect x="857.5" y="125.5" width="40" height="40" rx="5" fill="#fffef6"/></g><g class="keycap" data-keymapx="14" data-keymapy="1" transform="translate(5 5)"><rect x="905.5" y="122.5" width="52" height="52" rx="5" fill="#f7f2ea" class="outer border"/><rect x="905.5" y="122.5" width="52" height="52" rx="5" fill="#f7f2ea"/><rect x="911.5" y="125.5" width="40" height="40" rx="5" fill="#fffef6" class="inner border"/><rect x="911.5" y="125.5" width="40" height="40" rx="5" fill="#fffef6"/></g><g class="keycap" data-keymapx="15" data-keymapy="1" transform="translate(5 5)"><rect x="959.5" y="122.5" width="52" height="52" rx="5" fill="#f7f2ea" class="outer border"/><rect x="959.5" y="122.5" width="52" height="52" rx="5" fill="#f7f2ea"/><rect x="965.5" y="125.5" width="40" height="40" rx="5" fill="#fffef6" class="inner border"/><rect x="965.5" y="125.5" width="40" height="40" rx="5" fill="#fffef6"/></g><g class="keycap" data-keymapx="12" data-keymapy="2" transform="translate(5 5)"><rect x="797.5" y="176.5" width="52" height="52" rx="5" fill="#f7f2ea" class="outer border"/><rect x="797.5" y="176.5" width="52" height="52" rx="5" fill="#f7f2ea"/><rect x="803.5" y="179.5" width="40" height="40" rx="5" fill="#fffef6" class="inner border"/><rect x="803.5" y="179.5" width="40" height="40" rx="5" fill="#fffef6"/></g><g class="keycap" data-keymapx="13" data-keymapy="2" transform="translate(5 5)"><rect x="851.5" y="176.5" width="52" height="52" rx="5" fill="#f7f2ea" class="outer border"/><rect x="851.5" y="176.5" width="52" height="52" rx="5" fill="#f7f2ea"/><rect x="857.5" y="179.5" width="40" height="40" rx="5" fill="#fffef6" class="inner border"/><rect x="857.5" y="179.5" width="40" height="40" rx="5" fill="#fffef6"/></g><g class="keycap" data-keymapx="14" data-keymapy="2" transform="translate(5 5)"><rect x="905.5" y="176.5" width="52" height="52" rx="5" fill="#f7f2ea" class="outer border"/><rect x="905.5" y="176.5" width="52" height="52" rx="5" fill="#f7f2ea"/><rect x="911.5" y="179.5" width="40" height="40" rx="5" fill="#fffef6" class="inner border"/><rect x="911.5" y="179.5" width="40" height="40" rx="5" fill="#fffef6"/></g><g class="keycap" data-keymapx="15" data-keymapy="2" transform="translate(5 5)"><rect x="959.5" y="176.5" width="52" height="52" rx="5" fill="#f7f2ea" class="outer border"/><rect x="959.5" y="176.5" width="52" height="52" rx="5" fill="#f7f2ea"/><rect x="965.5" y="179.5" width="40" height="40" rx="5" fill="#fffef6" class="inner border"/><rect x="965.5" y="179.5" width="40" height="40" rx="5" fill="#fffef6"/></g><g class="keycap" transform="translate(5 5)"><rect x="1162" y="176.5" width="52" height="52" rx="5" fill="#f7f2ea" class="outer border"/><rect x="1162" y="176.5" width="52" height="52" rx="5" fill="#f7f2ea"/><rect x="1168" y="179.5" width="40" height="40" rx="5" fill="#fffef6" class="inner border"/><rect x="1168" y="179.5" width="40" height="40" rx="5" fill="#fffef6"/></g><g class="keycap" transform="translate(5 5)"><rect x="1216" y="176.5" width="52" height="52" rx="5" fill="#f7f2ea" class="outer border"/><rect x="1216" y="176.5" width="52" height="52" rx="5" fill="#f7f2ea"/><rect x="1222" y="179.5" width="40" height="40" rx="5" fill="#fffef6" class="inner border"/><rect x="1222" y="179.5" width="40" height="40" rx="5" fill="#fffef6"/></g><g class="keycap" data-keymapx="2" data-keymapy="3" transform="translate(5 5)"><rect x="95.5" y="203.5" width="52" height="52" rx="5" fill="#f7f2ea" class="outer border"/><rect x="95.5" y="203.5" width="52" height="52" rx="5" fill="#f7f2ea"/><rect x="101.5" y="206.5" width="40" height="40" rx="5" fill="#fffef6" class="inner border"/><rect x="101.5" y="206.5" width="40" height="40" rx="5" fill="#fffef6"/></g><g class="keycap" data-keymapx="3" data-keymapy="3" transform="translate(5 5)"><rect x="149.5" y="203.5" width="52" height="52" rx="5" fill="#f7f2ea" class="outer border"/><rect x="149.5" y="203.5" width="52" height="52" rx="5" fill="#f7f2ea"/><rect x="155.5" y="206.5" width="40" height="40" rx="5" fill="#fffef6" class="inner border"/><rect x="155.5" y="206.5" width="40" height="40" rx="5" fill="#fffef6"/></g><g class="keycap" data-keymapx="4" data-keymapy="3" transform="translate(5 5)"><rect x="203.5" y="203.5" width="52" height="52" rx="5" fill="#f7f2ea" class="outer border"/><rect x="203.5" y="203.5" width="52" height="52" rx="5" fill="#f7f2ea"/><rect x="209.5" y="206.5" width="40" height="40" rx="5" fill="#fffef6" class="inner border"/><rect x="209.5" y="206.5" width="40" height="40" rx="5" fill="#fffef6"/></g><g class="keycap" data-keymapx="5" data-keymapy="3" transform="translate(5 5)"><rect x="257.5" y="203.5" width="52" height="52" rx="5" fill="#f7f2ea" class="outer border"/><rect x="257.5" y="203.5" width="52" height="52" rx="5" fill="#f7f2ea"/><rect x="263.5" y="206.5" width="40" height="40" rx="5" fill="#fffef6" class="inner border"/><rect x="263.5" y="206.5" width="40" height="40" rx="5" fill="#fffef6"/></g><g class="keycap" data-keymapx="6" data-keymapy="3" transform="translate(5 5)"><rect x="379" y="203.5" width="52" height="52" rx="5" fill="#f7f2ea" class="outer border"/><rect x="379" y="203.5" width="52" height="52" rx="5" fill="#f7f2ea"/><rect x="385" y="206.5" width="40" height="40" rx="5" fill="#fffef6" class="inner border"/><rect x="385" y="206.5" width="40" height="40" rx="5" fill="#fffef6"/></g><g class="keycap" data-keymapx="7" data-keymapy="3" transform="translate(5 5)"><rect x="433" y="203.5" width="52" height="52" rx="5" fill="#f7f2ea" class="outer border"/><rect x="433" y="203.5" width="52" height="52" rx="5" fill="#f7f2ea"/><rect x="439" y="206.5" width="40" height="40" rx="5" fill="#fffef6" class="inner border"/><rect x="439" y="206.5" width="40" height="40" rx="5" fill="#fffef6"/></g><g class="keycap" data-keymapx="8" data-keymapy="3" transform="translate(5 5)"><rect x="487" y="203.5" width="52" height="52" rx="5" fill="#f7f2ea" class="outer border"/><rect x="487" y="203.5" width="52" height="52" rx="5" fill="#f7f2ea"/><rect x="493" y="206.5" width="40" height="40" rx="5" fill="#fffef6" class="inner border"/><rect x="493" y="206.5" width="40" height="40" rx="5" fill="#fffef6"/></g><g class="keycap" data-keymapx="9" data-keymapy="3" transform="translate(5 5)"><rect x="541" y="203.5" width="52" height="52" rx="5" fill="#f7f2ea" class="outer border"/><rect x="541" y="203.5" width="52" height="52" rx="5" fill="#f7f2ea"/><rect x="547" y="206.5" width="40" height="40" rx="5" fill="#fffef6" class="inner border"/><rect x="547" y="206.5" width="40" height="40" rx="5" fill="#fffef6"/></g><g class="keycap" data-keymapx="12" data-keymapy="3" transform="translate(5 5)"><rect x="797.5" y="230.5" width="52" height="52" rx="5" fill="#f7f2ea" class="outer border"/><rect x="797.5" y="230.5" width="52" height="52" rx="5" fill="#f7f2ea"/><rect x="803.5" y="233.5" width="40" height="40" rx="5" fill="#fffef6" class="inner border"/><rect x="803.5" y="233.5" width="40" height="40" rx="5" fill="#fffef6"/></g><g class="keycap" data-keymapx="13" data-keymapy="3" transform="translate(5 5)"><rect x="851.5" y="230.5" width="52" height="52" rx="5" fill="#f7f2ea" class="outer border"/><rect x="851.5" y="230.5" width="52" height="52" rx="5" fill="#f7f2ea"/><rect x="857.5" y="233.5" width="40" height="40" rx="5" fill="#fffef6" class="inner border"/><rect x="857.5" y="233.5" width="40" height="40" rx="5" fill="#fffef6"/></g><g class="keycap" data-keymapx="14" data-keymapy="3" transform="translate(5 5)"><rect x="905.5" y="230.5" width="52" height="52" rx="5" fill="#f7f2ea" class="outer border"/><rect x="905.5" y="230.5" width="52" height="52" rx="5" fill="#f7f2ea"/><rect x="911.5" y="233.5" width="40" height="40" rx="5" fill="#fffef6" class="inner border"/><rect x="911.5" y="233.5" width="40" height="40" rx="5" fill="#fffef6"/></g><g class="keycap" data-keymapx="15" data-keymapy="3" transform="translate(5 5)"><rect x="959.5" y="230.5" width="52" height="52" rx="5" fill="#f7f2ea" class="outer border"/><rect x="959.5" y="230.5" width="52" height="52" rx="5" fill="#f7f2ea"/><rect x="965.5" y="233.5" width="40" height="40" rx="5" fill="#fffef6" class="inner border"/><rect x="965.5" y="233.5" width="40" height="40" rx="5" fill="#fffef6"/></g><g class="keycap" transform="translate(5 5)"><rect x="1108" y="230.5" width="52" height="52" rx="5" fill="#f7f2ea" class="outer border"/><rect x="1108" y="230.5" width="52" height="52" rx="5" fill="#f7f2ea"/><rect x="1114" y="233.5" width="40" height="40" rx="5" fill="#fffef6" class="inner border"/><rect x="1114" y="233.5" width="40" height="40" rx="5" fill="#fffef6"/></g><g class="keycap" transform="translate(5 5)"><rect x="1162" y="230.5" width="52" height="52" rx="5" fill="#f7f2ea" class="outer border"/><rect x="1162" y="230.5" width="52" height="52" rx="5" fill="#f7f2ea"/><rect x="1168" y="233.5" width="40" height="40" rx="5" fill="#fffef6" class="inner border"/><rect x="1168" y="233.5" width="40" height="40" rx="5" fill="#fffef6"/></g><g class="keycap" transform="translate(5 5)"><rect x="1216" y="230.5" width="52" height="52" rx="5" fill="#f7f2ea" class="outer border"/><rect x="1216" y="230.5" width="52" height="52" rx="5" fill="#f7f2ea"/><rect x="1222" y="233.5" width="40" height="40" rx="5" fill="#fffef6" class="inner border"/><rect x="1222" y="233.5" width="40" height="40" rx="5" fill="#fffef6"/></g><g class="keycap" data-keymapx="2" data-keymapy="4" transform="translate(5 5)"><rect x="95.5" y="257.5" width="52" height="52" rx="5" fill="#f7f2ea" class="outer border"/><rect x="95.5" y="257.5" width="52" height="52" rx="5" fill="#f7f2ea"/><rect x="101.5" y="260.5" width="40" height="40" rx="5" fill="#fffef6" class="inner border"/><rect x="101.5" y="260.5" width="40" height="40" rx="5" fill="#fffef6"/></g><g class="keycap" data-keymapx="3" data-keymapy="4" transform="translate(5 5)"><rect x="149.5" y="257.5" width="52" height="52" rx="5" fill="#f7f2ea" class="outer border"/><rect x="149.5" y="257.5" width="52" height="52" rx="5" fill="#f7f2ea"/><rect x="155.5" y="260.5" width="40" height="40" rx="5" fill="#fffef6" class="inner border"/><rect x="155.5" y="260.5" width="40" height="40" rx="5" fill="#fffef6"/></g><g class="keycap" data-keymapx="4" data-keymapy="4" transform="translate(5 5)"><rect x="203.5" y="257.5" width="52" height="52" rx="5" fill="#f7f2ea" class="outer border"/><rect x="203.5" y="257.5" width="52" height="52" rx="5" fill="#f7f2ea"/><rect x="209.5" y="260.5" width="40" height="40" rx="5" fill="#fffef6" class="inner border"/><rect x="209.5" y="260.5" width="40" height="40" rx="5" fill="#fffef6"/></g><g class="keycap" data-keymapx="5" data-keymapy="4" transform="translate(5 5)"><rect x="257.5" y="257.5" width="52" height="52" rx="5" fill="#f7f2ea" class="outer border"/><rect x="257.5" y="257.5" width="52" height="52" rx="5" fill="#f7f2ea"/><rect x="263.5" y="260.5" width="40" height="40" rx="5" fill="#fffef6" class="inner border"/><rect x="263.5" y="260.5" width="40" height="40" rx="5" fill="#fffef6"/></g><g class="keycap" data-keymapx="6" data-keymapy="4" transform="translate(5 5)"><rect x="379" y="257.5" width="52" height="52" rx="5" fill="#f7f2ea" class="outer border"/><rect x="379" y="257.5" width="52" height="52" rx="5" fill="#f7f2ea"/><rect x="385" y="260.5" width="40" height="40" rx="5" fill="#fffef6" class="inner border"/><rect x="385" y="260.5" width="40" height="40" rx="5" fill="#fffef6"/></g><g class="keycap" data-keymapx="7" data-keymapy="4" transform="translate(5 5)"><rect x="433" y="257.5" width="52" height="52" rx="5" fill="#f7f2ea" class="outer border"/><rect x="433" y="257.5" width="52" height="52" rx="5" fill="#f7f2ea"/><rect x="439" y="260.5" width="40" height="40" rx="5" fill="#fffef6" class="inner border"/><rect x="439" y="260.5" width="40" height="40" rx="5" fill="#fffef6"/></g><g class="keycap" data-keymapx="8" data-keymapy="4" transform="translate(5 5)"><rect x="487" y="257.5" width="52" height="52" rx="5" fill="#f7f2ea" class="outer border"/><rect x="487" y="257.5" width="52" height="52" rx="5" fill="#f7f2ea"/><rect x="493" y="260.5" width="40" height="40" rx="5" fill="#fffef6" class="inner border"/><rect x="493" y="260.5" width="40" height="40" rx="5" fill="#fffef6"/></g><g class="keycap" data-keymapx="9" data-keymapy="4" transform="translate(5 5)"><rect x="541" y="257.5" width="52" height="52" rx="5" fill="#f7f2ea" class="outer border"/><rect x="541" y="257.5" width="52" height="52" rx="5" fill="#f7f2ea"/><rect x="547" y="260.5" width="40" height="40" rx="5" fill="#fffef6" class="inner border"/><rect x="547" y="260.5" width="40" height="40" rx="5" fill="#fffef6"/></g><g class="keycap" transform="rotate(5.8 -46.85 51.85)" data-keymapx="3" data-keymapy="0"><rect x="149.5" y="1" width="52" height="52" rx="5" fill="#f7f2ea" class="outer border"/><rect x="149.5" y="1" width="52" height="52" rx="5" fill="#f7f2ea"/><rect x="155.5" y="4" width="40" height="40" rx="5" fill="#fffef6" class="inner border"/><rect x="155.5" y="4" width="40" height="40" rx="5" fill="#fffef6"/></g><g class="keycap" transform="rotate(5.8 -46.85 51.85)" data-keymapx="5" data-keymapy="0"><rect x="257.5" y="6.4" width="52" height="52" rx="5" fill="#f7f2ea" class="outer border"/><rect x="257.5" y="6.4" width="52" height="52" rx="5" fill="#f7f2ea"/><rect x="263.5" y="9.4" width="40" height="40" rx="5" fill="#fffef6" class="inner border"/><rect x="263.5" y="9.4" width="40" height="40" rx="5" fill="#fffef6"/></g><g class="keycap" transform="rotate(5.8 -46.85 51.85)" data-keymapx="2" data-keymapy="0"><rect x="95.5" y="14.5" width="52" height="52" rx="5" fill="#f7f2ea" class="outer border"/><rect x="95.5" y="14.5" width="52" height="52" rx="5" fill="#f7f2ea"/><rect x="101.5" y="17.5" width="40" height="40" rx="5" fill="#fffef6" class="inner border"/><rect x="101.5" y="17.5" width="40" height="40" rx="5" fill="#fffef6"/></g><g class="keycap" transform="rotate(5.8 -46.85 51.85)" data-keymapx="4" data-keymapy="0"><rect x="203.5" y="14.5" width="52" height="52" rx="5" fill="#f7f2ea" class="outer border"/><rect x="203.5" y="14.5" width="52" height="52" rx="5" fill="#f7f2ea"/><rect x="209.5" y="17.5" width="40" height="40" rx="5" fill="#fffef6" class="inner border"/><rect x="209.5" y="17.5" width="40" height="40" rx="5" fill="#fffef6"/></g><g class="keycap" transform="rotate(5.8 -46.85 51.85)" data-keymapx="1" data-keymapy="0"><rect x="41.5" y="41.5" width="52" height="52" rx="5" fill="#f7f2ea" class="outer border"/><rect x="41.5" y="41.5" width="52" height="52" rx="5" fill="#f7f2ea"/><rect x="47.5" y="44.5" width="40" height="40" rx="5" fill="#fffef6" class="inner border"/><rect x="47.5" y="44.5" width="40" height="40" rx="5" fill="#fffef6"/></g><g class="keycap" transform="rotate(5.8 -46.85 51.85)" data-keymapx="3" data-keymapy="1"><rect x="149.5" y="55" width="52" height="52" rx="5" fill="#f7f2ea" class="outer border"/><rect x="149.5" y="55" width="52" height="52" rx="5" fill="#f7f2ea"/><rect x="155.5" y="58" width="40" height="40" rx="5" fill="#fffef6" class="inner border"/><rect x="155.5" y="58" width="40" height="40" rx="5" fill="#fffef6"/></g><g class="keycap" transform="rotate(5.8 -46.85 51.85)" data-keymapx="5" data-keymapy="1"><rect x="257.5" y="60.4" width="52" height="52" rx="5" fill="#f7f2ea" class="outer border"/><rect x="257.5" y="60.4" width="52" height="52" rx="5" fill="#f7f2ea"/><rect x="263.5" y="63.4" width="40" height="40" rx="5" fill="#fffef6" class="inner border"/><rect x="263.5" y="63.4" width="40" height="40" rx="5" fill="#fffef6"/></g><g class="keycap" transform="rotate(5.8 -46.85 51.85)" data-keymapx="2" data-keymapy="1"><rect x="95.5" y="68.5" width="52" height="52" rx="5" fill="#f7f2ea" class="outer border"/><rect x="95.5" y="68.5" width="52" height="52" rx="5" fill="#f7f2ea"/><rect x="101.5" y="71.5" width="40" height="40" rx="5" fill="#fffef6" class="inner border"/><rect x="101.5" y="71.5" width="40" height="40" rx="5" fill="#fffef6"/></g><g class="keycap" transform="rotate(5.8 -46.85 51.85)" data-keymapx="4" data-keymapy="1"><rect x="203.5" y="68.5" width="52" height="52" rx="5" fill="#f7f2ea" class="outer border"/><rect x="203.5" y="68.5" width="52" height="52" rx="5" fill="#f7f2ea"/><rect x="209.5" y="71.5" width="40" height="40" rx="5" fill="#fffef6" class="inner border"/><rect x="209.5" y="71.5" width="40" height="40" rx="5" fill="#fffef6"/></g><g class="keycap" transform="rotate(5.8 -46.85 51.85)" data-keymapx="1" data-keymapy="1"><rect x="41.5" y="95.5" width="52" height="52" rx="5" fill="#f7f2ea" class="outer border"/><rect x="41.5" y="95.5" width="52" height="52" rx="5" fill="#f7f2ea"/><rect x="47.5" y="98.5" width="40" height="40" rx="5" fill="#fffef6" class="inner border"/><rect x="47.5" y="98.5" width="40" height="40" rx="5" fill="#fffef6"/></g><g class="keycap" transform="rotate(5.8 -46.85 51.85)" data-keymapx="3" data-keymapy="2"><rect x="149.5" y="109" width="52" height="52" rx="5" fill="#f7f2ea" class="outer border"/><rect x="149.5" y="109" width="52" height="52" rx="5" fill="#f7f2ea"/><rect x="155.5" y="112" width="40" height="40" rx="5" fill="#fffef6" class="inner border"/><rect x="155.5" y="112" width="40" height="40" rx="5" fill="#fffef6"/></g><g class="keycap" transform="rotate(5.8 -46.85 51.85)" data-keymapx="5" data-keymapy="2"><rect x="257.5" y="114.4" width="52" height="52" rx="5" fill="#f7f2ea" class="outer border"/><rect x="257.5" y="114.4" width="52" height="52" rx="5" fill="#f7f2ea"/><rect x="263.5" y="117.4" width="40" height="40" rx="5" fill="#fffef6" class="inner border"/><rect x="263.5" y="117.4" width="40" height="40" rx="5" fill="#fffef6"/></g><g class="keycap" transform="rotate(5.8 -46.85 51.85)" data-keymapx="2" data-keymapy="2"><rect x="95.5" y="122.5" width="52" height="52" rx="5" fill="#f7f2ea" class="outer border"/><rect x="95.5" y="122.5" width="52" height="52" rx="5" fill="#f7f2ea"/><rect x="101.5" y="125.5" width="40" height="40" rx="5" fill="#fffef6" class="inner border"/><rect x="101.5" y="125.5" width="40" height="40" rx="5" fill="#fffef6"/></g><g class="keycap" transform="rotate(5.8 -46.85 51.85)" data-keymapx="4" data-keymapy="2"><rect x="203.5" y="122.5" width="52" height="52" rx="5" fill="#f7f2ea" class="outer border"/><rect x="203.5" y="122.5" width="52" height="52" rx="5" fill="#f7f2ea"/><rect x="209.5" y="125.5" width="40" height="40" rx="5" fill="#fffef6" class="inner border"/><rect x="209.5" y="125.5" width="40" height="40" rx="5" fill="#fffef6"/></g><g class="keycap" transform="rotate(5.8 -46.85 51.85)" data-keymapx="1" data-keymapy="2"><rect x="41.5" y="149.5" width="52" height="52" rx="5" fill="#f7f2ea" class="outer border"/><rect x="41.5" y="149.5" width="52" height="52" rx="5" fill="#f7f2ea"/><rect x="47.5" y="152.5" width="40" height="40" rx="5" fill="#fffef6" class="inner border"/><rect x="47.5" y="152.5" width="40" height="40" rx="5" fill="#fffef6"/></g><g class="keycap" transform="rotate(-5.8 51.85 -46.85)" data-keymapx="8" data-keymapy="0"><rect x="487" y="76.6" width="52" height="52" rx="5" fill="#f7f2ea" class="outer border"/><rect x="487" y="76.6" width="52" height="52" rx="5" fill="#f7f2ea"/><rect x="493" y="79.6" width="40" height="40" rx="5" fill="#fffef6" class="inner border"/><rect x="493" y="79.6" width="40" height="40" rx="5" fill="#fffef6"/></g><g class="keycap" transform="rotate(-5.8 51.85 -46.85)" data-keymapx="6" data-keymapy="0"><rect x="379" y="82" width="52" height="52" rx="5" fill="#f7f2ea" class="outer border"/><rect x="379" y="82" width="52" height="52" rx="5" fill="#f7f2ea"/><rect x="385" y="85" width="40" height="40" rx="5" fill="#fffef6" class="inner border"/><rect x="385" y="85" width="40" height="40" rx="5" fill="#fffef6"/></g><g class="keycap" transform="rotate(-5.8 51.85 -46.85)" data-keymapx="9" data-keymapy="0"><rect x="541" y="87.4" width="52" height="52" rx="5" fill="#f7f2ea" class="outer border"/><rect x="541" y="87.4" width="52" height="52" rx="5" fill="#f7f2ea"/><rect x="547" y="90.4" width="40" height="40" rx="5" fill="#fffef6" class="inner border"/><rect x="547" y="90.4" width="40" height="40" rx="5" fill="#fffef6"/></g><g class="keycap" transform="rotate(-5.8 51.85 -46.85)" data-keymapx="7" data-keymapy="0"><rect x="433" y="90.1" width="52" height="52" rx="5" fill="#f7f2ea" class="outer border"/><rect x="433" y="90.1" width="52" height="52" rx="5" fill="#f7f2ea"/><rect x="439" y="93.1" width="40" height="40" rx="5" fill="#fffef6" class="inner border"/><rect x="439" y="93.1" width="40" height="40" rx="5" fill="#fffef6"/></g><g class="keycap" transform="rotate(-5.8 51.85 -46.85)" data-keymapx="10" data-keymapy="0"><rect x="595" y="114.4" width="52" height="52" rx="5" fill="#f7f2ea" class="outer border"/><rect x="595" y="114.4" width="52" height="52" rx="5" fill="#f7f2ea"/><rect x="601" y="117.4" width="40" height="40" rx="5" fill="#fffef6" class="inner border"/><rect x="601" y="117.4" width="40" height="40" rx="5" fill="#fffef6"/></g><g class="keycap" transform="rotate(-5.8 51.85 -46.85)" data-keymapx="8" data-keymapy="1"><rect x="487" y="130.6" width="52" height="52" rx="5" fill="#f7f2ea" class="outer border"/><rect x="487" y="130.6" width="52" height="52" rx="5" fill="#f7f2ea"/><rect x="493" y="133.6" width="40" height="40" rx="5" fill="#fffef6" class="inner border"/><rect x="493" y="133.6" width="40" height="40" rx="5" fill="#fffef6"/></g><g class="keycap" transform="rotate(-5.8 51.85 -46.85)" data-keymapx="6" data-keymapy="1"><rect x="379" y="136" width="52" height="52" rx="5" fill="#f7f2ea" class="outer border"/><rect x="379" y="136" width="52" height="52" rx="5" fill="#f7f2ea"/><rect x="385" y="139" width="40" height="40" rx="5" fill="#fffef6" class="inner border"/><rect x="385" y="139" width="40" height="40" rx="5" fill="#fffef6"/></g><g class="keycap" transform="rotate(-5.8 51.85 -46.85)" data-keymapx="9" data-keymapy="1"><rect x="541" y="141.4" width="52" height="52" rx="5" fill="#f7f2ea" class="outer border"/><rect x="541" y="141.4" width="52" height="52" rx="5" fill="#f7f2ea"/><rect x="547" y="144.4" width="40" height="40" rx="5" fill="#fffef6" class="inner border"/><rect x="547" y="144.4" width="40" height="40" rx="5" fill="#fffef6"/></g><g class="keycap" transform="rotate(-5.8 51.85 -46.85)" data-keymapx="7" data-keymapy="1"><rect x="433" y="144.1" width="52" height="52" rx="5" fill="#f7f2ea" class="outer border"/><rect x="433" y="144.1" width="52" height="52" rx="5" fill="#f7f2ea"/><rect x="439" y="147.1" width="40" height="40" rx="5" fill="#fffef6" class="inner border"/><rect x="439" y="147.1" width="40" height="40" rx="5" fill="#fffef6"/></g><g class="keycap" transform="rotate(-5.8 51.85 -46.85)" data-keymapx="10" data-keymapy="1"><rect x="595" y="168.4" width="52" height="52" rx="5" fill="#f7f2ea" class="outer border"/><rect x="595" y="168.4" width="52" height="52" rx="5" fill="#f7f2ea"/><rect x="601" y="171.4" width="40" height="40" rx="5" fill="#fffef6" class="inner border"/><rect x="601" y="171.4" width="40" height="40" rx="5" fill="#fffef6"/></g><g class="keycap" transform="rotate(-5.8 51.85 -46.85)" data-keymapx="8" data-keymapy="2"><rect x="487" y="184.6" width="52" height="52" rx="5" fill="#f7f2ea" class="outer border"/><rect x="487" y="184.6" width="52" height="52" rx="5" fill="#f7f2ea"/><rect x="493" y="187.6" width="40" height="40" rx="5" fill="#fffef6" class="inner border"/><rect x="493" y="187.6" width="40" height="40" rx="5" fill="#fffef6"/></g><g class="keycap" transform="rotate(-5.8 51.85 -46.85)" data-keymapx="6" data-keymapy="2"><rect x="379" y="190" width="52" height="52" rx="5" fill="#f7f2ea" class="outer border"/><rect x="379" y="190" width="52" height="52" rx="5" fill="#f7f2ea"/><rect x="385" y="193" width="40" height="40" rx="5" fill="#fffef6" class="inner border"/><rect x="385" y="193" width="40" height="40" rx="5" fill="#fffef6"/></g><g class="keycap" transform="rotate(-5.8 51.85 -46.85)" data-keymapx="9" data-keymapy="2"><rect x="541" y="195.4" width="52" height="52" rx="5" fill="#f7f2ea" class="outer border"/><rect x="541" y="195.4" width="52" height="52" rx="5" fill="#f7f2ea"/><rect x="547" y="198.4" width="40" height="40" rx="5" fill="#fffef6" class="inner border"/><rect x="547" y="198.4" width="40" height="40" rx="5" fill="#fffef6"/></g><g class="keycap" transform="rotate(-5.8 51.85 -46.85)" data-keymapx="7" data-keymapy="2"><rect x="433" y="198.1" width="52" height="52" rx="5" fill="#f7f2ea" class="outer border"/><rect x="433" y="198.1" width="52" height="52" rx="5" fill="#f7f2ea"/><rect x="439" y="201.1" width="40" height="40" rx="5" fill="#fffef6" class="inner border"/><rect x="439" y="201.1" width="40" height="40" rx="5" fill="#fffef6"/></g><g class="keycap" transform="rotate(-5.8 51.85 -46.85)" data-keymapx="10" data-keymapy="2"><rect x="595" y="222.4" width="52" height="52" rx="5" fill="#f7f2ea" class="outer border"/><rect x="595" y="222.4" width="52" height="52" rx="5" fill="#f7f2ea"/><rect x="601" y="225.4" width="40" height="40" rx="5" fill="#fffef6" class="inner border"/><rect x="601" y="225.4" width="40" height="40" rx="5" fill="#fffef6"/></g></g></svg>